<svg width="35" height="31" viewBox="0 0 35 31" fill="none" xmlns="http://www.w3.org/2000/svg">
<path d="M8.07422 27.3057C8.07422 25.9092 8.20117 24.5381 8.45508 23.1924C8.73438 21.8213 9.03906 20.4502 9.36914 19.0791C9.69922 17.708 9.99121 16.3242 10.2451 14.9277C10.5244 13.5059 10.6641 12.0713 10.6641 10.624C10.6641 10.4209 10.6514 10.0908 10.626 9.63379C10.626 9.15137 10.626 8.65625 10.626 8.14844C10.626 7.64062 10.6133 7.1582 10.5879 6.70117C10.5879 6.21875 10.5879 5.88867 10.5879 5.71094C10.5371 5.60938 10.4102 5.45703 10.207 5.25391C10.0039 5.05078 9.86426 4.92383 9.78809 4.87305H9.36914C8.53125 4.87305 7.83301 5.06348 7.27441 5.44434C6.71582 5.7998 6.2334 6.24414 5.82715 6.77734C5.44629 7.31055 5.09082 7.90723 4.76074 8.56738C4.43066 9.20215 4.0625 9.78613 3.65625 10.3193C3.27539 10.8525 2.83105 11.3096 2.32324 11.6904C1.84082 12.0459 1.23145 12.2236 0.495117 12.2236C0.495117 10.8779 0.723633 9.57031 1.18066 8.30078C1.6377 7.00586 2.28516 5.86328 3.12305 4.87305C3.98633 3.85742 5.00195 3.04492 6.16992 2.43555C7.36328 1.82617 8.6709 1.52148 10.0928 1.52148C10.7021 1.52148 11.1973 1.54688 11.5781 1.59766C11.959 1.64844 12.2891 1.7627 12.5684 1.94043C12.8477 2.11816 13.0762 2.38477 13.2539 2.74023C13.4316 3.07031 13.6348 3.52734 13.8633 4.11133C13.8633 4.31445 13.8633 4.68262 13.8633 5.21582C13.8633 5.72363 13.8633 6.28223 13.8633 6.8916C13.8887 7.50098 13.9014 8.08496 13.9014 8.64355C13.9268 9.17676 13.9395 9.54492 13.9395 9.74805C13.9395 11.0938 13.8633 12.4141 13.7109 13.709C13.5586 15.0039 13.3682 16.2861 13.1396 17.5557C12.9365 18.8252 12.7588 20.1074 12.6064 21.4023C12.4541 22.6719 12.3779 23.9668 12.3779 25.2871H13.0635L22.0518 21.2119C22.0771 21.2119 22.1279 21.2119 22.2041 21.2119C22.3057 21.1865 22.4199 21.1738 22.5469 21.1738C22.6738 21.1738 22.7881 21.1738 22.8896 21.1738C23.0166 21.1484 23.1055 21.1357 23.1562 21.1357C23.3848 21.1357 23.626 21.1484 23.8799 21.1738C24.1338 21.1992 24.3623 21.25 24.5654 21.3262C24.7939 21.4023 24.9844 21.5293 25.1367 21.707C25.2891 21.8848 25.3652 22.126 25.3652 22.4307C25.3652 22.9639 25.2002 23.3828 24.8701 23.6875C24.54 23.9922 24.1465 24.2334 23.6895 24.4111C23.2578 24.5889 22.8008 24.7412 22.3184 24.8682C21.8613 24.9951 21.4805 25.1348 21.1758 25.2871C20.9473 25.4141 20.5791 25.6045 20.0713 25.8584C19.5889 26.1123 19.0176 26.4043 18.3574 26.7344C17.6973 27.0391 17.0117 27.3691 16.3008 27.7246C15.5898 28.0801 14.917 28.4229 14.2822 28.7529C13.6475 29.083 13.0762 29.375 12.5684 29.6289C12.0605 29.8828 11.6797 30.0605 11.4258 30.1621C11.375 30.1621 11.2861 30.1748 11.1592 30.2002C11.0576 30.2002 10.9307 30.2002 10.7783 30.2002C10.6514 30.2002 10.5244 30.2129 10.3975 30.2383C10.2959 30.2383 10.2197 30.2383 10.1689 30.2383C9.66113 30.2383 9.25488 30.1875 8.9502 30.0859C8.6709 29.959 8.46777 29.7812 8.34082 29.5527C8.21387 29.2988 8.1377 28.9941 8.1123 28.6387C8.08691 28.2832 8.07422 27.8389 8.07422 27.3057ZM26.0508 6.51074C26.0508 6.18066 26.0508 5.69824 26.0508 5.06348C26.0508 4.40332 26.1143 3.75586 26.2412 3.12109C26.3682 2.46094 26.5713 1.88965 26.8506 1.40723C27.1299 0.924805 27.5615 0.683594 28.1455 0.683594C28.4756 0.683594 28.7422 0.975586 28.9453 1.55957C29.1738 2.11816 29.3516 2.8291 29.4785 3.69238C29.6309 4.53027 29.7324 5.46973 29.7832 6.51074C29.8594 7.52637 29.9102 8.49121 29.9355 9.40527C29.9863 10.3193 30.0244 11.1191 30.0498 11.8047C30.0752 12.4648 30.1133 12.8711 30.1641 13.0234C30.2402 13.4297 30.3799 14.0391 30.583 14.8516C30.8115 15.6641 31.0527 16.5908 31.3066 17.6318C31.5605 18.6475 31.8398 19.7139 32.1445 20.8311C32.4492 21.9482 32.7285 23.0146 32.9824 24.0303C33.2617 25.0459 33.5156 25.96 33.7441 26.7725C33.9727 27.585 34.1504 28.1689 34.2773 28.5244C34.2773 28.5752 34.29 28.6514 34.3154 28.7529C34.3408 28.8545 34.3535 28.9307 34.3535 28.9814C34.3535 29.2607 34.252 29.4893 34.0488 29.667C33.8711 29.8193 33.6426 29.9463 33.3633 30.0479C33.1094 30.124 32.8428 30.1748 32.5635 30.2002C32.2842 30.2256 32.0303 30.2383 31.8018 30.2383C31.7002 30.2383 31.5479 30.2256 31.3447 30.2002C31.167 30.1748 31.0527 30.1621 31.002 30.1621C30.4688 28.3848 29.8975 26.5186 29.2881 24.5635C28.7041 22.583 28.1709 20.5771 27.6885 18.5459C27.2061 16.5146 26.8125 14.4834 26.5078 12.4521C26.2031 10.3955 26.0508 8.41504 26.0508 6.51074Z" fill="black"/>
<path d="M8.07422 27.3057C8.07422 25.9092 8.20117 24.5381 8.45508 23.1924C8.73438 21.8213 9.03906 20.4502 9.36914 19.0791C9.69922 17.708 9.99121 16.3242 10.2451 14.9277C10.5244 13.5059 10.6641 12.0713 10.6641 10.624C10.6641 10.4209 10.6514 10.0908 10.626 9.63379C10.626 9.15137 10.626 8.65625 10.626 8.14844C10.626 7.64062 10.6133 7.1582 10.5879 6.70117C10.5879 6.21875 10.5879 5.88867 10.5879 5.71094C10.5371 5.60938 10.4102 5.45703 10.207 5.25391C10.0039 5.05078 9.86426 4.92383 9.78809 4.87305H9.36914C8.53125 4.87305 7.83301 5.06348 7.27441 5.44434C6.71582 5.7998 6.2334 6.24414 5.82715 6.77734C5.44629 7.31055 5.09082 7.90723 4.76074 8.56738C4.43066 9.20215 4.0625 9.78613 3.65625 10.3193C3.27539 10.8525 2.83105 11.3096 2.32324 11.6904C1.84082 12.0459 1.23145 12.2236 0.495117 12.2236C0.495117 10.8779 0.723633 9.57031 1.18066 8.30078C1.6377 7.00586 2.28516 5.86328 3.12305 4.87305C3.98633 3.85742 5.00195 3.04492 6.16992 2.43555C7.36328 1.82617 8.6709 1.52148 10.0928 1.52148C10.7021 1.52148 11.1973 1.54688 11.5781 1.59766C11.959 1.64844 12.2891 1.7627 12.5684 1.94043C12.8477 2.11816 13.0762 2.38477 13.2539 2.74023C13.4316 3.07031 13.6348 3.52734 13.8633 4.11133C13.8633 4.31445 13.8633 4.68262 13.8633 5.21582C13.8633 5.72363 13.8633 6.28223 13.8633 6.8916C13.8887 7.50098 13.9014 8.08496 13.9014 8.64355C13.9268 9.17676 13.9395 9.54492 13.9395 9.74805C13.9395 11.0938 13.8633 12.4141 13.7109 13.709C13.5586 15.0039 13.3682 16.2861 13.1396 17.5557C12.9365 18.8252 12.7588 20.1074 12.6064 21.4023C12.4541 22.6719 12.3779 23.9668 12.3779 25.2871H13.0635L22.0518 21.2119C22.0771 21.2119 22.1279 21.2119 22.2041 21.2119C22.3057 21.1865 22.4199 21.1738 22.5469 21.1738C22.6738 21.1738 22.7881 21.1738 22.8896 21.1738C23.0166 21.1484 23.1055 21.1357 23.1562 21.1357C23.3848 21.1357 23.626 21.1484 23.8799 21.1738C24.1338 21.1992 24.3623 21.25 24.5654 21.3262C24.7939 21.4023 24.9844 21.5293 25.1367 21.707C25.2891 21.8848 25.3652 22.126 25.3652 22.4307C25.3652 22.9639 25.2002 23.3828 24.8701 23.6875C24.54 23.9922 24.1465 24.2334 23.6895 24.4111C23.2578 24.5889 22.8008 24.7412 22.3184 24.8682C21.8613 24.9951 21.4805 25.1348 21.1758 25.2871C20.9473 25.4141 20.5791 25.6045 20.0713 25.8584C19.5889 26.1123 19.0176 26.4043 18.3574 26.7344C17.6973 27.0391 17.0117 27.3691 16.3008 27.7246C15.5898 28.0801 14.917 28.4229 14.2822 28.7529C13.6475 29.083 13.0762 29.375 12.5684 29.6289C12.0605 29.8828 11.6797 30.0605 11.4258 30.1621C11.375 30.1621 11.2861 30.1748 11.1592 30.2002C11.0576 30.2002 10.9307 30.2002 10.7783 30.2002C10.6514 30.2002 10.5244 30.2129 10.3975 30.2383C10.2959 30.2383 10.2197 30.2383 10.1689 30.2383C9.66113 30.2383 9.25488 30.1875 8.9502 30.0859C8.6709 29.959 8.46777 29.7812 8.34082 29.5527C8.21387 29.2988 8.1377 28.9941 8.1123 28.6387C8.08691 28.2832 8.07422 27.8389 8.07422 27.3057ZM26.0508 6.51074C26.0508 6.18066 26.0508 5.69824 26.0508 5.06348C26.0508 4.40332 26.1143 3.75586 26.2412 3.12109C26.3682 2.46094 26.5713 1.88965 26.8506 1.40723C27.1299 0.924805 27.5615 0.683594 28.1455 0.683594C28.4756 0.683594 28.7422 0.975586 28.9453 1.55957C29.1738 2.11816 29.3516 2.8291 29.4785 3.69238C29.6309 4.53027 29.7324 5.46973 29.7832 6.51074C29.8594 7.52637 29.9102 8.49121 29.9355 9.40527C29.9863 10.3193 30.0244 11.1191 30.0498 11.8047C30.0752 12.4648 30.1133 12.8711 30.1641 13.0234C30.2402 13.4297 30.3799 14.0391 30.583 14.8516C30.8115 15.6641 31.0527 16.5908 31.3066 17.6318C31.5605 18.6475 31.8398 19.7139 32.1445 20.8311C32.4492 21.9482 32.7285 23.0146 32.9824 24.0303C33.2617 25.0459 33.5156 25.96 33.7441 26.7725C33.9727 27.585 34.1504 28.1689 34.2773 28.5244C34.2773 28.5752 34.29 28.6514 34.3154 28.7529C34.3408 28.8545 34.3535 28.9307 34.3535 28.9814C34.3535 29.2607 34.252 29.4893 34.0488 29.667C33.8711 29.8193 33.6426 29.9463 33.3633 30.0479C33.1094 30.124 32.8428 30.1748 32.5635 30.2002C32.2842 30.2256 32.0303 30.2383 31.8018 30.2383C31.7002 30.2383 31.5479 30.2256 31.3447 30.2002C31.167 30.1748 31.0527 30.1621 31.002 30.1621C30.4688 28.3848 29.8975 26.5186 29.2881 24.5635C28.7041 22.583 28.1709 20.5771 27.6885 18.5459C27.2061 16.5146 26.8125 14.4834 26.5078 12.4521C26.2031 10.3955 26.0508 8.41504 26.0508 6.51074Z" fill="url(#paint0_linear)"/>
<defs>
<linearGradient id="paint0_linear" x1="16.5" y1="8" x2="26" y2="31" gradientUnits="userSpaceOnUse">
<stop stop-color="#54A6F1"/>
<stop offset="1" stop-color="#4152EF"/>
</linearGradient>
</defs>
</svg>
